<mxfile host="app.diagrams.net" modified="2023-12-06T15:13:46.393Z" agent="Mozilla/5.0 (Windows NT 10.0; Win64; x64) AppleWebKit/537.36 (KHTML, like Gecko) Chrome/116.0.5845.686 YaBrowser/23.9.5.686 Yowser/2.5 Safari/537.36" version="22.1.6" etag="4XTFy5j9C5jSo5sRN1hl" type="github">
  <diagram name="Страница — 1" id="i03Dcrw-lSY2_fy-uRdG">
    <mxGraphModel>
      <root>
        <mxCell id="0" />
        <mxCell id="1" parent="0" />
      </root>
    </mxGraphModel>
  </diagram>
</mxfile>
